<?xml version="1.0" encoding="UTF-8"?>
<svg id="Layer_1" data-name="Layer 1" xmlns="http://www.w3.org/2000/svg" viewBox="0 0 173.27 143.9">
  <defs>
    <style>
      .cls-1 {
        fill: #f2f2f3;
      }

      .cls-2 {
        fill: #ee3324;
      }
    </style>
  </defs>
  <path class="cls-1" d="m54.8,15.32c0,4.77.03,86.39,0,87.65-.19,8.63-.15,14.11-2.76,20.59-1.64,4.07-5.08,13.23-11.8,18.08-3.1,2.24-4.27,2.26-4.27,2.26,29.38-.25,36.89-18.1,38.17-21.35,1.76-4.44,3.13-18.89,3.24-20.39.28-4.01-.48-37.88-.48-37.88,0,0-.08-43.86.42-49.89.5-6.03,1.59-8.12,3.59-9.63s7.79-2.39,7.79-2.39V0h-33.95"/>
  <path class="cls-1" d="m93.86.09s40.01-3.01,41.02,26.29c1.04,30.29-36.5,27.96-23.77,28.96,7.52.59,36.67,9.54,32.65,37-4.17,28.47-44.87,25.28-44.87,25.28,4.69-.84,15.4-9.71,14.06-33.65-1.34-23.94-14.57-29.63-14.57-29.63,0,0,9.71-5.53,11.05-22.1C110.77,15.66,99.38,1.76,93.86.09Z"/>
  <path class="cls-1" d="m29.84,17.27C26.94,4.46,0,8.93,0,8.93V0s41.71,0,41.71,0v85.78c0,1.44-1.24,2.6-2.75,2.56l-9.32-.2c-.28-3.47.48-32.74.48-32.74"/>
  <rect class="cls-2" x="159.7" y="96.88" width="13.56" height="13.56"/>
</svg>