<?xml version="1.0" encoding="UTF-8"?>
<svg id="Layer_1" data-name="Layer 1" xmlns="http://www.w3.org/2000/svg" width="400" height="32" viewBox="0 0 2122.31 533.21">
  <defs>
    <style>
      .cls-1 {
        letter-spacing: 0em;
      }

      .cls-2 {
        letter-spacing: 0em;
      }

      .cls-3, .cls-4 {
        fill: #f2f2f3;
      }

      .cls-5 {
        letter-spacing: 0em;
      }

      .cls-4 {
        font-family: NHaasGroteskDSPro-75Bd, 'Neue Haas Grotesk Display Pro';
        font-size: 462.18px;
      }
    </style>
  </defs>
  <path class="cls-3" d="m269.64,109.99c0,34.26.21,620.29,0,629.31-1.43,61.93-1.09,101.29-20.41,147.86-12.12,29.21-37.55,94.98-87.22,129.83-22.93,16.09-31.55,16.23-31.55,16.23,217.12-1.8,272.57-129.98,282.07-153.27,12.99-31.86,23.17-135.6,23.93-146.39,2.05-28.82-3.52-271.94-3.52-271.94,0,0-.58-314.93,3.13-358.21,3.71-43.28,11.71-58.32,26.56-69.14,14.85-10.82,57.53-17.13,57.53-17.13V0h-250.86"/>
  <path class="cls-3" d="m558.2.63s295.68-21.64,303.1,188.73c7.67,217.48-269.7,200.75-175.67,207.97,55.55,4.26,270.94,68.52,241.24,265.67-30.78,204.4-331.56,181.52-331.56,181.52,34.64-6.01,113.81-69.72,103.92-241.62-9.89-171.9-107.63-212.77-107.63-212.77,0,0,71.75-39.67,81.65-158.68,9.9-119.01-74.23-218.78-115.05-230.81Z"/>
  <path class="cls-3" d="m83.71,632.84c-2.05-24.91,3.52-235.07,3.52-235.07,0,0,.58-272.23-3.13-309.64-3.71-37.41-11.71-50.41-26.56-59.77C42.69,19.01,0,14.8,0,14.8V0S172.89,0,172.89,0v615.87c0,10.33-9.18,18.64-20.33,18.4l-68.85-1.43Z"/>
  <text class="cls-4" transform="translate(1319.1 595.35)"><tspan class="cls-1" x="0" y="0">Thomas Billington</tspan></text>
</svg>